name Walk2.mot
datacolumns 19
datarows 25
range 2.47000000 2.59000000
endheader

                time	   L_ground_force_vx	   L_ground_force_vy	   L_ground_force_vz	   L_ground_force_px	   L_ground_force_py	   L_ground_force_pz	   R_ground_force_vx	   R_ground_force_vy	   R_ground_force_vz	   R_ground_force_px	   R_ground_force_py	   R_ground_force_pz	   L_ground_torque_x	   L_ground_torque_y	   L_ground_torque_z	   R_ground_torque_x	   R_ground_torque_y	   R_ground_torque_z	
          2.47000000	         -5.48078364	         10.69678041	          0.43028887	          0.49100577	          0.00000000	          0.17562838	         -0.00000000	          0.00000000	         -0.00000000	         -0.00000000	          0.00000000	          0.00000000	          0.00000000	          0.16319856	          0.00000000	          0.00000000	         -0.00000000	          0.00000000	
          2.47500000	         -2.46790709	          2.35152379	          0.24706582	          0.16182657	          0.00000000	          0.05730930	         -0.00000000	         -0.00000000	         -0.00000000	         -0.00000000	          0.00000000	          0.00000000	          0.00000000	          0.07445213	          0.00000000	          0.00000000	         -0.00000000	          0.00000000	
          2.48000000	         -0.12693703	         -0.47109473	          0.02565167	         -0.00583787	          0.00000000	         -0.00226351	          0.00000000	         -0.00000000	          0.00000000	          0.00000000	          0.00000000	         -0.00000000	          0.00000000	          0.00422166	          0.00000000	          0.00000000	          0.00000000	          0.00000000	
          2.48500000	          0.23205519	         -0.38782567	         -0.01958654	         -0.01920413	          0.00000000	         -0.00685617	          0.00000000	         -0.00000000	          0.00000000	          0.00000000	          0.00000000	         -0.00000000	          0.00000000	         -0.00689023	          0.00000000	          0.00000000	          0.00000000	          0.00000000	
          2.49000000	          0.07911862	         -0.05808792	         -0.00829890	         -0.00477420	          0.00000000	         -0.00168501	         -0.00000000	          0.00000000	         -0.00000000	         -0.00000000	          0.00000000	          0.00000000	          0.00000000	         -0.00239832	          0.00000000	          0.00000000	         -0.00000000	          0.00000000	
          2.49500000	         -0.00290196	          0.02572707	         -0.00021150	          0.00073953	          0.00000000	          0.00026950	         -0.00000000	          0.00000000	         -0.00000000	         -0.00000000	          0.00000000	          0.00000000	          0.00000000	          0.00007234	          0.00000000	          0.00000000	         -0.00000000	          0.00000000	
          2.50000000	         -0.00940254	          0.01354775	          0.00084098	          0.00072630	          0.00000000	          0.00025873	         -0.00000000	          0.00000000	         -0.00000000	         -0.00000000	          0.00000000	          0.00000000	          0.00000000	          0.00028062	          0.00000000	          0.00000000	         -0.00000000	          0.00000000	
          2.50500000	         -0.00233276	          0.00102319	          0.00025976	          0.00012427	          0.00000000	          0.00004361	          0.00000000	         -0.00000000	          0.00000000	          0.00000000	          0.00000000	         -0.00000000	          0.00000000	          0.00007117	          0.00000000	          0.00000000	          0.00000000	          0.00000000	
          2.51000000	          0.00036341	         -0.00118198	         -0.00001811	         -0.00004382	          0.00000000	         -0.00001580	          0.00000000	         -0.00000000	          0.00000000	          0.00000000	          0.00000000	         -0.00000000	          0.00000000	         -0.00001041	          0.00000000	          0.00000000	          0.00000000	          0.00000000	
          2.51500000	          0.00035547	         -0.00044386	         -0.00003329	         -0.00002582	          0.00000000	         -0.00000918	          0.00000000	         -0.00000000	          0.00000000	          0.00000000	          0.00000000	         -0.00000000	          0.00000000	         -0.00001065	          0.00000000	          0.00000000	          0.00000000	          0.00000000	
          2.52000000	          0.00006066	          0.00000327	         -0.00000741	         -0.00000252	          0.00000000	         -0.00000087	         -0.00000000	          0.00000000	         -0.00000000	         -0.00000000	          0.00000000	          0.00000000	          0.00000000	         -0.00000187	          0.00000000	          0.00000000	         -0.00000000	          0.00000000	
          2.52500000	         -0.00002149	          0.00004909	          0.00000153	          0.00000209	          0.00000000	          0.00000075	         -0.00000000	          0.00000000	         -0.00000000	         -0.00000000	          0.00000000	          0.00000000	          0.00000000	          0.00000063	          0.00000000	          0.00000000	         -0.00000000	          0.00000000	
          2.53000000	         -0.00001263	          0.00001347	          0.00000123	          0.00000086	          0.00000000	          0.00000031	         -0.00000000	          0.00000000	         -0.00000000	         -0.00000000	          0.00000000	          0.00000000	          0.00000000	          0.00000038	          0.00000000	          0.00000000	         -0.00000000	          0.00000000	
          2.53500000	         -0.00000123	         -0.00000153	          0.00000018	          0.00000002	          0.00000000	          0.00000000	          0.00000000	         -0.00000000	          0.00000000	          0.00000000	          0.00000000	         -0.00000000	          0.00000000	          0.00000004	          0.00000000	          0.00000000	          0.00000000	          0.00000000	
          2.54000000	          0.00000103	         -0.00000189	         -0.00000008	         -0.00000009	          0.00000000	         -0.00000003	          0.00000000	         -0.00000000	          0.00000000	          0.00000000	          0.00000000	         -0.00000000	          0.00000000	         -0.00000003	          0.00000000	          0.00000000	          0.00000000	          0.00000000	
          2.54500000	          0.00000042	         -0.00000037	         -0.00000004	         -0.00000003	          0.00000000	         -0.00000001	          0.00000000	          0.00000000	         -0.00000000	         -0.00000000	          0.00000000	          0.00000000	          0.00000000	         -0.00000001	          0.00000000	          0.00000000	          0.00000000	          0.00000000	
          2.55000000	          0.00000001	          0.00000010	         -0.00000000	          0.00000000	          0.00000000	          0.00000000	         -0.00000000	          0.00000000	         -0.00000000	         -0.00000000	          0.00000000	          0.00000000	          0.00000000	         -0.00000000	          0.00000000	          0.00000000	         -0.00000000	          0.00000000	
          2.55500000	         -0.00000004	          0.00000007	          0.00000000	          0.00000000	          0.00000000	          0.00000000	         -0.00000000	          0.00000000	         -0.00000000	         -0.00000000	          0.00000000	          0.00000000	          0.00000000	          0.00000000	          0.00000000	          0.00000000	         -0.00000000	          0.00000000	
          2.56000000	         -0.00000001	          0.00000001	          0.00000000	          0.00000000	          0.00000000	          0.00000000	          0.00000000	         -0.00000000	          0.00000000	          0.00000000	          0.00000000	         -0.00000000	          0.00000000	          0.00000000	          0.00000000	          0.00000000	          0.00000000	          0.00000000	
          2.56500000	          0.00000000	         -0.00000001	         -0.00000000	         -0.00000000	          0.00000000	         -0.00000000	          0.00000000	         -0.00000000	          0.00000000	          0.00000000	          0.00000000	         -0.00000000	          0.00000000	         -0.00000000	          0.00000000	          0.00000000	          0.00000000	          0.00000000	
          2.57000000	          0.00000000	         -0.00000000	         -0.00000000	         -0.00000000	          0.00000000	         -0.00000000	          0.00000000	         -0.00000000	          0.00000000	          0.00000000	          0.00000000	         -0.00000000	          0.00000000	         -0.00000000	          0.00000000	          0.00000000	          0.00000000	          0.00000000	
          2.57500000	          0.00000000	         -0.00000000	         -0.00000000	         -0.00000000	          0.00000000	         -0.00000000	         -0.00000000	          0.00000000	         -0.00000000	         -0.00000000	          0.00000000	          0.00000000	          0.00000000	         -0.00000000	          0.00000000	          0.00000000	         -0.00000000	          0.00000000	
          2.58000000	         -0.00000000	          0.00000000	          0.00000000	          0.00000000	          0.00000000	          0.00000000	         -0.00000000	          0.00000000	         -0.00000000	         -0.00000000	          0.00000000	          0.00000000	          0.00000000	          0.00000000	          0.00000000	          0.00000000	         -0.00000000	          0.00000000	
          2.58500000	         -0.00000000	          0.00000000	          0.00000000	          0.00000000	          0.00000000	          0.00000000	         -0.00000000	          0.00000000	         -0.00000000	         -0.00000000	          0.00000000	          0.00000000	          0.00000000	          0.00000000	          0.00000000	          0.00000000	         -0.00000000	          0.00000000	
          2.59000000	         -0.00000000	         -0.00000000	          0.00000000	          0.00000000	          0.00000000	          0.00000000	          0.00000000	         -0.00000000	          0.00000000	          0.00000000	          0.00000000	         -0.00000000	          0.00000000	          0.00000000	          0.00000000	          0.00000000	          0.00000000	          0.00000000	
